<?xml version="1.0" encoding="utf-8"?>
<!-- Generator: Adobe Illustrator 16.2.0, SVG Export Plug-In . SVG Version: 6.00 Build 0)  -->
<!DOCTYPE svg PUBLIC "-//W3C//DTD SVG 1.1//EN" "http://www.w3.org/Graphics/SVG/1.1/DTD/svg11.dtd">
<svg version="1.1" id="Layer_1" xmlns="http://www.w3.org/2000/svg" xmlns:xlink="http://www.w3.org/1999/xlink" x="0px" y="0px"
	 width="36px" height="36px" viewBox="-1.233 -1.774 36 36" enable-background="new -1.233 -1.774 36 36" xml:space="preserve">
<path fill="#DAD3C5" d="M21.435,22.042c-0.833-0.749-8.175-1.43-9.421,0.106c-0.887,1.095-0.398,3.479-0.398,3.479
	c0,0.415-0.241,0.794-0.602,0.973c-1.268,0.736-2.025,1.302-3.194,2.313c-0.453,0.392-1.117,0.425-1.542,0l-2.692-2.693
	c-0.425-0.424-0.425-1.117,0-1.542c7.243-7.244,18.983-7.244,26.229,0c0.423,0.425,0.423,1.118,0,1.542l-2.701,2.703
	c-0.423,0.423-1.092,0.393-1.543,0c-1.005-0.884-2.131-1.713-3.193-2.317c-0.354-0.184-0.594-0.547-0.594-0.979
	C21.783,25.627,22.269,22.787,21.435,22.042z"/>
<g>
	<polygon fill="#DAD3C5" points="28.216,11.974 20.01,11.974 20.01,3.768 21.104,3.768 21.104,10.88 28.216,10.88 	"/>
	<polygon fill="#DAD3C5" points="28.793,20.466 27.698,20.466 27.698,11.563 20.45,4.315 5.7,4.315 5.7,20.466 4.606,20.466 
		4.606,3.221 20.904,3.221 28.793,11.11 	"/>
	<rect x="8.664" y="8.509" fill="#DAD3C5" width="8.707" height="1.094"/>
	<rect x="8.664" y="11.024" fill="#DAD3C5" width="8.707" height="1.094"/>
	<rect x="8.664" y="14.528" fill="#DAD3C5" width="15.725" height="1.094"/>
</g>
</svg>
