<?xml version="1.0" encoding="utf-8"?>
<!-- Generator: Adobe Illustrator 16.2.0, SVG Export Plug-In . SVG Version: 6.00 Build 0)  -->
<!DOCTYPE svg PUBLIC "-//W3C//DTD SVG 1.1//EN" "http://www.w3.org/Graphics/SVG/1.1/DTD/svg11.dtd">
<svg version="1.1" id="Layer_1" xmlns="http://www.w3.org/2000/svg" xmlns:xlink="http://www.w3.org/1999/xlink" x="0px" y="0px"
	 width="95px" height="24px" viewBox="0 0 95 24" enable-background="new 0 0 95 24" xml:space="preserve">
<path fill-rule="evenodd" clip-rule="evenodd" fill="#C1B59D" d="M0.679,21.513H12.22c0.004,0.004,0.008,0.006,0.012,0.01
	c0.054,0.043,0.108,0.088,0.162,0.128c0.005,0.004,0.01,0.008,0.015,0.012c0.003,0.002,0.008,0.006,0.013,0.01
	c0.005,0.002,0.01,0.008,0.013,0.012c0.005,0.004,0.008,0.006,0.013,0.01c0.001,0,0.001,0,0.002,0.002
	c0.013,0.01,0.025,0.02,0.039,0.029c0.004,0.004,0.008,0.008,0.013,0.01c0.018,0.014,0.036,0.029,0.053,0.043
	c0.005,0.002,0.01,0.006,0.015,0.01s0.008,0.006,0.013,0.01s0.01,0.008,0.013,0.012c0.001,0,0.001,0,0.001,0
	c0.01,0.006,0.017,0.014,0.027,0.02c0.004,0.004,0.008,0.008,0.013,0.01c0.004,0.004,0.011,0.008,0.014,0.012
	c0.005,0.002,0.008,0.006,0.013,0.01c0.005,0.002,0.01,0.006,0.013,0.01c0.005,0.002,0.01,0.006,0.013,0.01
	c0.005,0.004,0.01,0.008,0.015,0.01c0.005,0.004,0.008,0.008,0.013,0.01c0.05,0.036,0.101,0.073,0.151,0.108
	c0.005,0.004,0.008,0.006,0.013,0.01c0.068,0.049,0.136,0.098,0.206,0.145v0.385H0.679V21.513z M25.968,21.906l0.808,0.64h67.333
	v-1.033h-68.14V21.906z M31.026,3.466c1.667,1.661,2.549,3.929,2.549,6.563c0,2.584-0.914,4.923-2.573,6.582
	c-1.655,1.654-3.994,2.568-6.585,2.572h-0.023c-2.912,0-5.539-1.179-7.206-3.236c-1.278-1.578-1.982-3.663-1.979-5.871
	c0.003-2.924,1.174-5.54,3.211-7.174c1.614-1.296,3.679-1.981,5.969-1.981l0.036,0C27.079,0.928,29.36,1.809,31.026,3.466z
	 M24.393,17.322c2.601,0,4.619-1.559,5.536-4.273c0.316-0.934,0.482-1.977,0.482-3.018c0-1.879-0.516-3.636-1.452-4.952
	c-1.092-1.532-2.67-2.343-4.566-2.343c-1.54,0-2.852,0.536-3.902,1.593c-1.342,1.35-2.133,3.505-2.118,5.766
	c0.009,1.498,0.348,2.92,0.98,4.113C20.4,16.186,22.237,17.322,24.393,17.322z M24.394,19.08L24.394,19.08L24.394,19.08
	L24.394,19.08z M41.803,8.755c-0.183-0.08-0.401-0.16-0.653-0.252c-1.386-0.512-3.48-1.287-3.396-3.255
	c0.062-1.417,1.227-2.486,2.711-2.486c1.43,0,2.511,0.747,2.89,1.997l0.015,0.049l0.403,0.151l1.066-2.552l-0.053-0.048
	C43.78,1.43,42.474,0.96,40.905,0.96c-2.948,0-5.246,1.625-5.718,4.045c-0.316,1.625,0.107,3.136,1.162,4.149
	c0.79,0.757,1.853,1.24,2.885,1.648l0.009,0.004c0.009,0.003,0.018,0.007,0.029,0.012c1.064,0.421,2.521,0.997,3.294,1.941
	c0.451,0.548,0.623,1.247,0.512,2.076c-0.194,1.442-1.316,2.45-2.792,2.509c-2.188,0.084-4.131-1.187-4.46-2.896l-0.012-0.057
	l-0.465-0.161l-0.821,2.827l0.037,0.041c1.098,1.276,2.967,2.009,5.131,2.009l0,0c0.082,0,0.165-0.002,0.246-0.004
	c3.352-0.094,5.879-2.505,5.879-5.609C45.819,11.503,44.468,9.91,41.803,8.755z M90.907,1.231l0.636,1.024v10.101L81.582,1.265
	l-0.03-0.034h-3.259l0.896,1.367l-0.012,15.238l-0.636,1.024h3.502l-0.484-1.019V5.614l12.189,13.423l0.178,0.196v-16.9l0.516-1.102
	H90.907z M69.045,17.06v-6.313h5.573l0.672-1.878l-0.311,0.108h-5.935v-5.97h4.827l1.645,0.554L76.32,1.23H65.54l0.516,1.313v15.103
	l-0.473,1.215H76.15l0.82-2.357l-2.089,0.557H69.045z M63.659,1.231h-4.075l0.636,1.024v6.71h-9.408V2.249l0.485-1.018h-4.075
	l0.634,1.024v15.581l-0.634,1.024h4.075l-0.485-1.019v-7.1h9.408v7.094l-0.636,1.024h4.075l-0.484-1.019V2.249L63.659,1.231z
	 M23.083,21.865c-0.146,0.008-0.291,0.014-0.436,0.014c-3.044,0-6.232-2.083-9.474-6.184c-1.269-1.605-2.725-3.435-3.964-4.89
	c2.512-0.421,4.316-2.421,4.316-4.819c0-2.982-2.372-4.835-6.189-4.835H1.464L2.026,2.54v15.296L1.392,18.86h4.062L4.97,17.842
	V2.815c3.759-0.266,5.541,0.72,5.693,3.161c0.062,0.997-0.244,1.894-0.884,2.599c-0.855,0.94-2.232,1.468-3.983,1.528l-0.069,0.002
	l-0.163,0.45l2.271,2.807l0.44,0.561c3.979,5.071,7.122,9.079,11.94,9.079c0.994,0,2.018-0.164,3.128-0.501l0.118-0.036
	l-0.311-0.605L23.083,21.865z"/>
</svg>
